<mxfile host="app.diagrams.net" agent="Mozilla/5.0 (Macintosh; Intel Mac OS X 10_15_7) AppleWebKit/537.36 (KHTML, like Gecko) Chrome/128.0.0.0 Safari/537.36" version="24.7.14">
  <diagram name="Page-1" id="5EE4N8qnl_aWUZX5upyI">
    <mxGraphModel dx="966" dy="650" grid="1" gridSize="10" guides="1" tooltips="1" connect="1" arrows="1" fold="1" page="1" pageScale="1" pageWidth="827" pageHeight="1169" math="0" shadow="0">
      <root>
        <mxCell id="0" />
        <mxCell id="1" parent="0" />
        <mxCell id="s8MXRqdVffT5w0hsrJ6m-7" value="" style="rounded=1;whiteSpace=wrap;html=1;dashed=1;strokeWidth=4;strokeColor=#666666;fillColor=#f5f5f5;fontColor=#333333;fontSize=17;" parent="1" vertex="1">
          <mxGeometry x="70" y="140" width="370" height="330" as="geometry" />
        </mxCell>
        <mxCell id="s8MXRqdVffT5w0hsrJ6m-1" value="&lt;div style=&quot;font-size: 17px;&quot;&gt;&lt;br style=&quot;font-size: 17px;&quot;&gt;&lt;/div&gt;&lt;span lang=&quot;EN-US&quot; style=&quot;font-family: &amp;quot;Times New Roman&amp;quot;, serif; font-size: 17px;&quot;&gt;&lt;div style=&quot;font-size: 17px;&quot;&gt;&lt;span style=&quot;background-color: initial; font-size: 17px;&quot;&gt;&lt;b style=&quot;font-size: 17px;&quot;&gt;&lt;font style=&quot;font-size: 17px;&quot;&gt;Score Correlation Indicators&lt;/font&gt;&lt;/b&gt;&lt;/span&gt;&lt;/div&gt;&lt;/span&gt;&lt;div style=&quot;font-size: 17px;&quot;&gt;&lt;font face=&quot;Times New Roman, serif&quot; style=&quot;font-size: 17px;&quot;&gt;&lt;span style=&quot;font-size: 17px;&quot;&gt;1.Raw Score Correlation&lt;/span&gt;&lt;/font&gt;&lt;/div&gt;&lt;div style=&quot;font-size: 17px;&quot;&gt;&lt;div style=&quot;font-size: 17px;&quot;&gt;&lt;span style=&quot;font-size: 17px; font-family: &amp;quot;Times New Roman&amp;quot;, serif; background-color: initial;&quot;&gt;2.Latent Trait Correlation&lt;/span&gt;&lt;/div&gt;&lt;div style=&quot;font-size: 17px;&quot;&gt;&lt;br style=&quot;font-size: 17px;&quot;&gt;&lt;/div&gt;&lt;/div&gt;" style="rounded=1;whiteSpace=wrap;html=1;align=center;fillColor=#ffe6cc;strokeColor=#d79b00;fontSize=17;" parent="1" vertex="1">
          <mxGeometry x="130" y="170" width="260" height="80" as="geometry" />
        </mxCell>
        <mxCell id="s8MXRqdVffT5w0hsrJ6m-4" value="" style="edgeStyle=orthogonalEdgeStyle;rounded=0;orthogonalLoop=1;jettySize=auto;html=1;fontFamily=Times New Roman;fontSize=17;fillColor=#fff2cc;strokeColor=#d6b656;strokeWidth=2;" parent="1" source="s8MXRqdVffT5w0hsrJ6m-2" target="s8MXRqdVffT5w0hsrJ6m-3" edge="1">
          <mxGeometry relative="1" as="geometry" />
        </mxCell>
        <mxCell id="s8MXRqdVffT5w0hsrJ6m-2" value="&lt;div style=&quot;font-size: 17px;&quot;&gt;&lt;b style=&quot;font-size: 17px;&quot;&gt;1st Section&lt;/b&gt;&lt;/div&gt;Development Data" style="rounded=1;whiteSpace=wrap;html=1;fontFamily=Times New Roman;fontSize=17;fillColor=#fff2cc;strokeColor=#d6b656;" parent="1" vertex="1">
          <mxGeometry x="90" y="270" width="120" height="60" as="geometry" />
        </mxCell>
        <mxCell id="s8MXRqdVffT5w0hsrJ6m-6" value="" style="edgeStyle=orthogonalEdgeStyle;rounded=0;orthogonalLoop=1;jettySize=auto;html=1;fontFamily=Times New Roman;fontSize=17;fillColor=#fff2cc;strokeColor=#d6b656;strokeWidth=2;" parent="1" source="s8MXRqdVffT5w0hsrJ6m-3" target="s8MXRqdVffT5w0hsrJ6m-5" edge="1">
          <mxGeometry relative="1" as="geometry" />
        </mxCell>
        <mxCell id="s8MXRqdVffT5w0hsrJ6m-3" value="&lt;b style=&quot;font-size: 17px;&quot;&gt;2nd Section&lt;/b&gt;&lt;br style=&quot;font-size: 17px;&quot;&gt;Validation Data" style="whiteSpace=wrap;html=1;rounded=1;fontFamily=Times New Roman;fontSize=17;fillColor=#fff2cc;strokeColor=#d6b656;" parent="1" vertex="1">
          <mxGeometry x="290" y="270" width="120" height="60" as="geometry" />
        </mxCell>
        <mxCell id="s8MXRqdVffT5w0hsrJ6m-5" value="&lt;div style=&quot;font-size: 17px;&quot;&gt;&lt;b style=&quot;font-size: 17px;&quot;&gt;3rd Section&lt;/b&gt;&lt;/div&gt;Content Validity Analysis" style="whiteSpace=wrap;html=1;rounded=1;fontFamily=Times New Roman;fontSize=17;fillColor=#fff2cc;strokeColor=#d6b656;" parent="1" vertex="1">
          <mxGeometry x="490" y="270" width="140" height="60" as="geometry" />
        </mxCell>
        <mxCell id="s8MXRqdVffT5w0hsrJ6m-8" value="&lt;b style=&quot;font-size: 17px;&quot;&gt;Reliability Indicators&lt;/b&gt;&lt;br style=&quot;font-size: 17px;&quot;&gt;1.&lt;span style=&quot;background-color: initial; font-size: 17px;&quot;&gt;Cronbach’s Alpha&lt;/span&gt;&lt;div style=&quot;font-size: 17px;&quot;&gt;&lt;span lang=&quot;EN-US&quot; style=&quot;font-size: 17px;&quot;&gt;2.McDonald’s Omega&lt;/span&gt;&lt;/div&gt;&lt;div style=&quot;font-size: 17px;&quot;&gt;&lt;font style=&quot;font-size: 17px;&quot;&gt;&lt;span style=&quot;font-size: 17px;&quot;&gt;3.Empirical Reliability&lt;/span&gt;&lt;/font&gt;&lt;/div&gt;" style="rounded=1;whiteSpace=wrap;html=1;fontSize=17;fontFamily=Times New Roman;fillColor=#ffe6cc;strokeColor=#d79b00;" parent="1" vertex="1">
          <mxGeometry x="150" y="350" width="220" height="100" as="geometry" />
        </mxCell>
      </root>
    </mxGraphModel>
  </diagram>
</mxfile>
